<?xml version="1.0" standalone="no"?>
<!DOCTYPE svg PUBLIC "-//W3C//DTD SVG 20010904//EN"
 "http://www.w3.org/TR/2001/REC-SVG-20010904/DTD/svg10.dtd">
<svg version="1.0" xmlns="http://www.w3.org/2000/svg"
 width="296.000000pt" height="180.000000pt" viewBox="0 0 296.000000 180.000000"
 preserveAspectRatio="xMidYMid meet">

<g transform="translate(0.000000,180.000000) scale(0.100000,-0.100000)"
fill="#000000" stroke="none">
<path d="M0 1336 l0 -465 24 -28 24 -27 -22 -11 c-21 -11 -21 -14 -24 -408
l-2 -397 245 0 c213 0 244 2 239 15 -7 16 16 21 31 6 6 -5 34 -5 65 -1 85 13
127 11 144 -5 12 -13 64 -15 340 -15 319 0 326 0 326 20 0 11 -4 20 -10 20 -5
0 -10 8 -11 18 0 14 -2 14 -8 -3 -8 -19 -8 -19 -19 2 -7 12 -12 29 -12 37 0
22 20 20 21 -1 0 -11 3 -13 6 -5 2 6 13 12 24 12 10 0 19 4 19 8 0 5 10 13 22
19 16 7 28 27 38 64 14 47 19 54 44 57 18 2 26 0 21 -7 -3 -6 1 -11 9 -11 9 0
15 -8 14 -17 -4 -52 4 -83 27 -104 24 -23 35 -69 16 -69 -5 0 -7 -9 -4 -20 4
-17 14 -19 76 -19 62 0 74 4 95 25 26 25 82 130 82 152 0 7 20 25 44 39 25 15
47 36 50 46 3 14 10 18 22 13 11 -4 22 1 31 14 9 12 33 35 56 51 22 16 36 29
31 29 -5 0 -1 5 9 11 9 5 17 19 17 29 0 14 5 18 18 13 14 -6 15 -4 4 9 -10 13
-10 19 3 32 9 9 14 20 10 26 -3 5 3 18 15 30 20 20 43 67 74 148 9 23 33 65
54 93 l37 50 9 -48 c13 -75 12 -186 -2 -191 -7 -2 -12 -17 -12 -32 0 -16 -4
-32 -10 -35 -6 -3 -10 -15 -10 -26 0 -21 -20 -27 -20 -6 0 6 -5 4 -11 -7 -7
-11 -14 -14 -18 -8 -4 6 -11 8 -17 4 -16 -11 -114 -165 -114 -180 0 -7 -34
-51 -75 -99 -79 -92 -87 -115 -59 -158 l16 -25 484 0 484 0 0 900 0 900 -1480
0 -1480 0 0 -464z m2070 258 l25 -25 -49 25 c-62 33 -70 41 -31 32 17 -4 41
-19 55 -32z m132 -101 c32 -38 30 -41 -17 -28 -81 25 -119 -5 -128 -100 -2
-22 -7 -47 -10 -55 -3 -8 -9 -33 -12 -55 -12 -84 -18 -100 -53 -137 -13 -14
-21 -31 -18 -37 4 -6 2 -11 -4 -11 -17 0 -45 -30 -79 -86 -24 -40 -39 -54 -72
-64 -49 -17 -89 -55 -89 -87 0 -12 -5 -25 -11 -29 -6 -3 -8 -17 -4 -33 4 -14
9 -51 12 -81 2 -30 9 -60 15 -67 20 -25 -10 -183 -35 -183 -5 0 -5 -4 -2 -10
3 -5 2 -10 -4 -10 -5 0 -8 -9 -6 -20 4 -19 1 -22 -27 -24 -7 -1 -18 -13 -25
-28 -9 -20 -19 -28 -38 -28 -15 0 -25 -6 -25 -15 0 -24 -45 -1 -46 23 -1 12
-7 28 -14 37 -7 8 -10 15 -6 15 4 0 0 14 -9 30 -9 17 -20 30 -25 30 -6 0 -10
6 -10 14 0 8 -10 22 -21 30 l-22 15 24 5 c13 3 36 7 52 11 19 4 29 1 33 -9 7
-18 58 -14 79 7 20 21 14 96 -9 109 -20 11 -46 60 -46 86 0 10 -10 28 -23 40
-22 21 -103 60 -94 45 3 -4 -23 -7 -57 -5 -47 3 -65 0 -75 -12 -8 -9 -22 -16
-32 -16 -12 0 -19 -7 -19 -20 0 -11 5 -20 11 -20 7 0 9 -10 4 -27 -3 -16 -7
-37 -7 -49 0 -17 -6 -20 -39 -20 -35 1 -41 -3 -55 -31 -8 -18 -19 -33 -24 -33
-5 0 -7 -6 -4 -14 3 -8 -7 -23 -25 -35 -38 -27 -64 -17 -82 34 -9 23 -19 35
-32 35 -10 0 -16 -4 -12 -9 10 -17 -33 -33 -53 -21 -15 10 -15 10 3 8 11 -2
31 8 44 21 19 19 24 34 23 75 0 44 -2 51 -18 48 -17 -2 -17 -1 1 10 28 16 45
41 40 56 -2 6 0 12 5 12 10 0 25 38 22 60 -1 10 1 11 4 3 11 -26 23 -11 34 44
9 42 14 53 21 41 6 -10 17 -14 31 -10 11 3 19 1 15 -4 -3 -5 1 -18 9 -28 12
-18 15 -18 31 -4 17 15 162 31 253 29 37 -1 63 15 130 82 21 20 43 37 49 37 6
0 10 3 10 8 -4 21 3 40 19 58 10 10 35 55 56 98 20 43 56 108 78 143 l41 65
55 -6 c34 -3 61 -1 69 6 7 6 13 8 13 5 0 -7 86 37 108 55 17 15 83 46 98 47 6
1 18 -7 26 -16z m-1142 -407 c0 -3 -4 -8 -10 -11 -5 -3 -10 -1 -10 4 0 6 5 11
10 11 6 0 10 -2 10 -4z m273 -13 c-7 -2 -19 -2 -25 0 -7 3 -2 5 12 5 14 0 19
-2 13 -5z m-308 -223 c25 -11 -1 -11 -35 0 -20 6 -21 8 -5 8 11 0 29 -3 40 -8z
m-905 -10 c0 -5 -4 -10 -10 -10 -5 0 -10 5 -10 10 0 6 5 10 10 10 6 0 10 -4
10 -10z m889 -74 c-2 -2 -15 -9 -29 -15 -24 -11 -24 -11 -6 3 16 13 49 24 35
12z m934 -83 c13 -18 -4 -16 -31 3 -25 17 -28 34 -10 52 10 10 15 7 22 -15 5
-15 13 -34 19 -40z m-1663 -139 c0 -8 -5 -12 -10 -9 -6 4 -8 11 -5 16 9 14 15
11 15 -7z m929 -158 c42 -22 151 -107 151 -118 0 -5 -8 -8 -17 -6 -10 2 -17
11 -15 19 1 8 -13 -4 -32 -26 -40 -46 -42 -56 -20 -90 16 -25 16 -25 -14 -25
-17 0 -33 -4 -36 -8 -3 -5 -22 -9 -43 -10 -21 -1 -39 -6 -41 -12 -6 -16 -26
-12 -39 8 -20 32 -9 189 18 257 13 33 22 65 21 70 -1 6 7 -3 19 -18 12 -15 33
-34 48 -41z m297 -56 c0 -12 -4 -16 -9 -11 -5 5 -6 14 -3 20 10 15 12 14 12
-9z"/>
</g>
</svg>
