<?xml version="1.0" standalone="no"?>
<!DOCTYPE svg PUBLIC "-//W3C//DTD SVG 20010904//EN"
 "http://www.w3.org/TR/2001/REC-SVG-20010904/DTD/svg10.dtd">
<svg version="1.0" xmlns="http://www.w3.org/2000/svg"
 width="223.000000pt" height="180.000000pt" viewBox="0 0 223.000000 180.000000"
 preserveAspectRatio="xMidYMid meet">

<g transform="translate(0.000000,180.000000) scale(0.100000,-0.100000)"
fill="#000000" stroke="none">
<path d="M104 1793 c-40 -8 -43 -109 -6 -215 9 -27 21 -48 28 -48 6 0 19 -15
28 -34 16 -34 80 -81 96 -71 5 3 15 25 21 48 18 69 -3 137 -62 192 -78 73
-100 118 -61 128 14 4 13 5 -3 4 -11 0 -30 -2 -41 -4z"/>
<path d="M230 1794 c0 -17 24 -46 49 -59 25 -12 30 -22 36 -70 4 -38 11 -55
21 -55 8 0 14 10 14 26 0 24 19 103 27 113 2 3 14 -6 27 -18 32 -31 52 -24 82
27 l25 42 -140 0 c-78 0 -141 -3 -141 -6z"/>
<path d="M576 1792 c-3 -5 -8 -28 -12 -52 -5 -27 -17 -53 -32 -67 -28 -26 -42
-29 -61 -10 -10 10 -16 7 -32 -12 -14 -17 -19 -39 -19 -81 0 -77 6 -90 41 -90
31 0 49 -23 49 -61 0 -14 -17 -40 -40 -64 -33 -34 -40 -48 -46 -97 -7 -60 11
-108 40 -108 7 0 19 -7 26 -15 19 -23 40 -18 40 10 0 14 11 34 25 47 21 18 25
30 25 79 0 32 3 64 6 73 10 27 24 18 24 -15 0 -35 45 -85 87 -95 31 -8 34 -5
40 48 7 66 10 70 33 58 14 -7 20 -21 20 -45 0 -31 21 -65 40 -65 11 0 40 29
40 41 0 15 27 10 34 -7 13 -34 6 -107 -11 -121 -16 -13 -16 -13 3 -4 12 6 57
12 100 15 66 3 89 0 141 -20 65 -25 113 -24 113 2 0 8 5 14 10 14 27 0 -6 76
-58 132 -25 27 -26 28 -46 10 -12 -10 -37 -28 -57 -40 l-36 -22 -36 28 c-44
33 -51 51 -38 97 8 29 6 45 -9 80 -23 54 -33 60 -64 40 -23 -15 -27 -15 -57 0
-25 14 -37 15 -57 6 -21 -10 -24 -9 -18 4 3 9 6 23 6 30 0 7 13 16 30 20 35 8
70 48 70 81 0 13 -13 38 -30 57 -16 19 -34 46 -39 60 -15 39 -36 33 -71 -18
-17 -25 -35 -45 -39 -45 -16 0 -51 70 -51 101 0 27 -2 29 -39 29 -22 0 -42 -4
-45 -8z"/>
<path d="M965 1773 c-3 -15 -12 -31 -18 -35 -8 -5 -1 -21 21 -50 18 -24 41
-62 52 -85 17 -37 23 -43 51 -43 25 0 45 -14 106 -72 41 -40 84 -88 95 -108
34 -57 92 -108 129 -114 31 -4 79 -47 79 -68 0 -5 18 -8 40 -8 35 0 42 -4 51
-27 24 -59 38 -79 75 -99 46 -24 64 -54 64 -107 0 -37 0 -38 22 -23 34 24 53
19 94 -24 21 -22 43 -39 49 -38 29 6 76 -19 126 -67 31 -30 69 -57 85 -61 32
-7 84 -51 84 -71 0 -18 -38 -36 -65 -29 -13 3 -41 22 -62 42 -30 29 -43 35
-68 31 -37 -6 -90 30 -99 67 -3 14 -15 30 -26 36 -26 14 -26 1 -1 -48 22 -44
47 -122 56 -174 4 -26 12 -39 28 -44 12 -3 33 -17 47 -30 28 -26 54 -26 124
-1 44 16 56 31 56 70 0 24 4 27 35 27 l35 0 0 360 c0 334 -1 361 -17 367 -44
16 -100 64 -121 104 -12 24 -29 55 -37 69 -24 42 -48 103 -52 134 -3 31 -29
66 -48 66 -6 0 -21 18 -34 40 l-22 40 -215 0 c-169 0 -219 -3 -237 -14 -12 -8
-39 -18 -59 -21 -31 -6 -39 -4 -50 14 -12 20 -21 21 -189 21 l-177 0 -7 -27z
m1035 -174 c0 -5 -9 -9 -20 -9 -19 0 -26 11 -14 23 8 8 34 -3 34 -14z m-410
-21 c11 -18 27 -35 37 -39 9 -3 22 -21 28 -40 7 -21 22 -39 41 -48 36 -17 44
-29 44 -61 0 -34 -17 -50 -52 -50 -28 0 -68 30 -68 51 0 6 -9 22 -20 36 -13
17 -20 41 -20 68 0 26 -6 48 -15 55 -17 14 -21 60 -5 60 6 0 19 -15 30 -32z
m280 -378 c8 -5 24 -18 34 -29 16 -18 17 -25 8 -47 -10 -20 -17 -24 -35 -18
-12 3 -29 12 -37 19 -8 7 -28 15 -43 19 -23 6 -27 10 -21 29 14 46 40 54 94
27z m208 -292 c-6 -18 -28 -21 -28 -4 0 9 7 16 16 16 9 0 14 -5 12 -12z"/>
<path d="M2110 1789 c0 -6 5 -20 12 -32 7 -12 15 -48 19 -80 8 -68 21 -87 60
-87 l29 0 0 105 0 105 -60 0 c-36 0 -60 -4 -60 -11z"/>
<path d="M0 1548 c0 -91 1 -96 20 -91 17 4 20 0 20 -24 0 -16 7 -39 16 -51 12
-17 14 -35 9 -77 -8 -61 6 -109 33 -120 10 -4 22 1 29 11 10 14 16 15 42 4 44
-18 50 -8 36 52 -25 101 -80 261 -92 265 -6 2 -23 -9 -37 -24 -14 -15 -26 -26
-26 -23 -1 3 -3 25 -5 50 -2 25 -12 63 -24 85 l-20 40 -1 -97z"/>
<path d="M322 1498 c-7 -7 -12 -28 -12 -47 0 -20 -5 -52 -10 -72 -15 -53 0
-113 28 -117 20 -3 22 1 22 47 0 39 5 55 20 68 15 13 20 30 20 63 0 48 -13 70
-40 70 -9 0 -21 -5 -28 -12z"/>
<path d="M1336 1233 c-3 -3 -6 -20 -6 -36 0 -25 2 -28 15 -17 8 7 15 21 15 31
0 19 -13 32 -24 22z"/>
<path d="M252 1208 c-16 -16 -15 -43 3 -78 27 -52 61 -31 49 30 -8 38 -36 64
-52 48z"/>
<path d="M1508 1159 c-10 -5 -18 -18 -18 -29 0 -10 -6 -25 -12 -32 -39 -41
-40 -45 -15 -70 13 -13 29 -33 35 -43 12 -20 12 -20 27 -1 18 24 20 82 3 89
-8 3 -6 6 5 6 9 1 17 7 17 15 0 8 6 16 12 18 10 4 10 10 1 31 -13 29 -27 33
-55 16z"/>
<path d="M0 1115 c0 -43 1 -46 23 -39 31 9 30 9 13 42 -25 49 -36 48 -36 -3z"/>
<path d="M704 1135 c-8 -19 -63 -50 -84 -47 -9 2 -5 -7 11 -21 20 -18 34 -22
63 -19 41 5 59 28 54 70 -3 30 -35 43 -44 17z"/>
<path d="M854 1142 c-6 -4 -20 -25 -31 -47 -23 -45 -19 -65 20 -107 38 -41 50
-36 44 17 -6 45 -6 45 21 39 40 -10 43 -13 32 -34 -13 -25 9 -81 41 -103 21
-15 24 -15 38 1 9 10 26 16 40 14 15 -2 21 0 17 7 -4 6 -3 11 3 11 6 0 8 6 6
13 -3 6 5 17 17 22 16 7 23 20 25 44 7 81 -125 149 -211 110 -14 -7 -27 -19
-29 -28 -4 -12 -5 -11 -6 4 -2 28 -15 45 -27 37z"/>
<path d="M386 1045 c-9 -9 -16 -19 -16 -23 1 -13 25 -39 47 -50 17 -10 25 -9
38 4 14 14 14 19 2 37 -7 11 -23 27 -34 34 -18 12 -23 12 -37 -2z"/>
<path d="M182 1008 c3 -25 17 -32 37 -19 12 8 12 12 2 25 -20 24 -43 20 -39
-6z"/>
<path d="M620 976 c0 -8 5 -18 10 -21 6 -3 10 1 10 9 0 8 -4 18 -10 21 -5 3
-10 -1 -10 -9z"/>
<path d="M34 959 c-26 -29 -8 -54 39 -54 21 0 48 -9 66 -23 28 -21 31 -21 31
-5 0 26 -25 58 -64 82 -42 26 -48 26 -72 0z"/>
<path d="M270 942 c0 -5 7 -13 16 -16 10 -4 14 -1 12 6 -5 15 -28 23 -28 10z"/>
<path d="M1467 939 c6 -6 9 -17 7 -24 -7 -16 22 -40 31 -25 8 13 -21 60 -37
60 -9 0 -9 -3 -1 -11z"/>
<path d="M1206 892 c-9 -11 -14 -29 -12 -43 3 -13 5 -27 5 -31 1 -12 59 -9 66
3 4 6 13 8 21 5 21 -8 18 47 -4 67 -24 22 -55 21 -76 -1z m54 -12 c0 -5 -7
-10 -15 -10 -8 0 -15 5 -15 10 0 6 7 10 15 10 8 0 15 -4 15 -10z"/>
<path d="M727 827 c3 -15 9 -27 14 -27 13 0 11 13 -5 35 -13 18 -14 18 -9 -8z"/>
<path d="M886 804 c-4 -20 -6 -37 -4 -39 10 -9 78 -14 78 -6 0 5 -4 11 -8 13
-5 2 -15 16 -23 32 -20 42 -36 42 -43 0z"/>
<path d="M337 813 c-14 -13 -6 -33 13 -33 11 0 20 4 20 9 0 13 -26 32 -33 24z"/>
<path d="M395 790 c20 -22 31 -20 22 5 -4 8 -14 15 -23 15 -16 0 -16 -2 1 -20z"/>
<path d="M650 797 c0 -19 32 -47 53 -47 18 0 22 17 9 36 -12 18 -62 27 -62 11z"/>
<path d="M172 757 c-12 -7 -19 -16 -16 -20 13 -13 40 -7 57 13 16 19 16 20 -1
20 -9 -1 -27 -6 -40 -13z"/>
<path d="M1223 713 c-11 -11 -27 -22 -36 -26 -9 -3 -17 -10 -17 -16 0 -5 -10
-11 -22 -15 l-23 -6 23 -16 c28 -19 58 -13 115 24 37 24 39 27 18 30 -22 3
-22 4 -4 17 10 8 13 15 6 15 -6 0 -18 3 -26 6 -9 3 -24 -3 -34 -13z"/>
<path d="M5 712 c-3 -3 -5 -38 -5 -78 0 -68 1 -72 25 -78 33 -8 33 -25 0 -18
-15 2 -25 0 -25 -7 0 -6 8 -11 18 -11 9 0 28 -6 42 -13 32 -16 80 -1 80 25 0
10 5 18 11 18 17 0 -1 41 -31 69 -15 14 -35 40 -45 58 -17 28 -56 48 -70 35z"/>
<path d="M1400 710 c0 -5 5 -10 11 -10 8 0 7 -6 -2 -17 -13 -15 -12 -16 9 -11
14 4 25 1 31 -9 5 -10 15 -14 25 -10 11 4 16 1 16 -11 0 -9 9 0 20 21 26 48
26 48 -11 42 -16 -3 -35 -2 -42 2 -20 12 -57 14 -57 3z"/>
<path d="M657 694 c-8 -8 2 -55 14 -68 15 -17 10 -24 -22 -31 -21 -5 -36 -2
-47 8 -27 23 -62 5 -62 -32 0 -22 -8 -35 -25 -47 -14 -9 -25 -23 -25 -31 0
-23 -38 -71 -63 -79 -12 -3 -31 -15 -42 -25 -75 -69 -120 -107 -125 -103 -2 3
0 8 6 12 13 9 44 75 44 94 0 20 -46 62 -59 53 -6 -3 -9 -10 -6 -14 2 -5 -4
-18 -14 -30 -16 -18 -18 -28 -9 -54 5 -18 10 -39 11 -47 1 -8 5 -17 9 -20 4
-3 -15 -28 -42 -54 -28 -27 -53 -46 -58 -41 -4 4 -1 10 6 12 20 7 14 39 -7 40
-13 1 -18 -3 -15 -12 7 -17 -7 -43 -64 -124 -39 -54 -47 -61 -53 -45 -6 14 -8
9 -8 -18 -1 -35 1 -38 26 -38 26 0 74 13 123 33 l25 10 -32 10 c-37 11 -43 26
-13 34 11 3 20 9 20 13 0 4 26 15 58 24 31 10 63 20 71 22 10 3 10 8 2 18 -9
11 -3 15 29 20 23 3 49 10 58 15 9 5 24 12 32 15 8 3 22 10 30 14 45 26 66 31
168 37 l111 8 -3 111 c-2 84 1 116 12 133 8 14 12 33 8 48 -4 17 -1 31 9 41
22 22 18 41 -10 48 -13 3 -29 15 -35 26 -11 21 -22 25 -33 14z"/>
<path d="M954 692 c4 -7 2 -12 -6 -12 -7 0 -19 -9 -26 -21 -12 -18 -10 -24 16
-47 48 -45 70 -54 113 -47 42 7 47 15 24 39 -8 8 -15 19 -15 25 0 6 -9 15 -20
21 -11 6 -18 15 -15 19 3 5 -6 12 -19 15 -13 3 -32 9 -42 13 -12 4 -15 3 -10
-5z"/>
<path d="M407 684 c-11 -12 13 -44 33 -44 24 0 26 13 4 34 -17 17 -27 20 -37
10z"/>
<path d="M1630 676 c0 -2 7 -7 16 -10 8 -3 12 -2 9 4 -6 10 -25 14 -25 6z"/>
<path d="M329 653 c-6 -41 21 -93 48 -93 7 0 13 11 13 25 0 14 -4 25 -10 25
-5 0 -10 5 -10 11 0 20 -38 50 -41 32z"/>
<path d="M1431 590 c-27 -10 -39 -20 -32 -24 18 -12 65 3 79 24 14 23 11 23
-47 0z"/>
<path d="M425 568 c-22 -26 -25 -34 -13 -42 8 -6 12 -18 10 -28 -2 -9 1 -19 7
-22 15 -9 54 84 41 99 -5 6 -7 15 -3 18 3 4 1 7 -4 7 -6 0 -23 -14 -38 -32z"/>
<path d="M1361 574 c0 -11 3 -14 6 -6 3 7 2 16 -1 19 -3 4 -6 -2 -5 -13z"/>
<path d="M175 501 c-3 -6 -15 -11 -26 -11 -10 0 -19 -6 -19 -14 0 -18 50 -9
57 11 7 17 -3 28 -12 14z"/>
<path d="M826 503 c-3 -4 -6 -21 -6 -40 0 -18 -4 -33 -10 -33 -16 0 -12 -76 5
-90 29 -24 41 -63 33 -105 -5 -21 -6 -45 -4 -51 3 -8 39 -12 113 -13 90 -1
110 -4 121 -19 13 -16 14 -16 26 1 7 9 20 17 29 17 29 0 68 43 70 77 2 32 4
33 47 35 25 1 87 0 138 -1 93 -2 94 -1 123 30 16 17 34 50 41 72 6 23 18 52
25 64 20 31 3 38 -89 38 -58 0 -78 -3 -78 -13 0 -7 -5 -10 -12 -6 -6 4 -32 9
-57 12 -60 5 -86 9 -86 12 0 9 -55 5 -75 -6 -25 -13 -25 -13 -2 -14 36 0 25
-17 -18 -28 -22 -5 -38 -6 -35 -2 6 10 -68 7 -76 -3 -7 -10 -120 9 -128 22
-10 14 -88 51 -95 44z m195 -243 c10 -6 19 -18 19 -26 0 -13 -7 -15 -37 -10
-55 10 -73 16 -73 26 0 20 60 26 91 10z"/>
<path d="M51 404 c-22 -27 -27 -44 -13 -44 9 0 44 61 38 67 -2 2 -13 -8 -25
-23z"/>
<path d="M1576 373 c-20 -21 -36 -42 -36 -46 0 -5 -14 -29 -31 -53 -21 -31
-40 -47 -60 -51 -16 -3 -32 -10 -35 -14 -3 -5 -9 -7 -14 -4 -9 5 -35 -33 -28
-40 2 -2 21 0 43 5 22 6 92 17 155 25 174 23 222 35 208 52 -6 8 -25 21 -41
30 -27 14 -29 18 -24 59 5 46 1 49 -44 45 -9 -1 -22 5 -29 14 -18 22 -25 19
-64 -22z"/>
<path d="M132 388 c-7 -7 -12 -8 -12 -2 0 5 -7 -4 -15 -20 -9 -16 -13 -36 -11
-43 7 -17 33 -17 39 0 3 9 9 9 26 -1 18 -10 21 -10 21 3 0 8 -5 15 -10 15 -6
0 -10 8 -8 18 2 9 -2 16 -9 15 -7 -2 -10 4 -7 12 7 18 2 19 -14 3z"/>
<path d="M1878 243 c7 -3 16 -2 19 1 4 3 -2 6 -13 5 -11 0 -14 -3 -6 -6z"/>
<path d="M705 220 c-3 -5 1 -10 9 -10 9 0 16 5 16 10 0 6 -4 10 -9 10 -6 0
-13 -4 -16 -10z"/>
<path d="M2178 223 c12 -2 30 -2 40 0 9 3 -1 5 -23 4 -22 0 -30 -2 -17 -4z"/>
<path d="M590 211 c0 -6 12 -14 28 -17 39 -10 46 -15 31 -25 -11 -7 -10 -9 3
-9 25 0 18 38 -8 44 -12 3 -29 9 -38 12 -9 3 -16 1 -16 -5z"/>
<path d="M2060 210 c0 -6 7 -10 15 -10 8 0 15 2 15 4 0 2 -7 6 -15 10 -8 3
-15 1 -15 -4z"/>
<path d="M2106 195 c4 -8 7 -15 9 -15 2 0 5 7 9 15 3 9 0 15 -9 15 -9 0 -12
-6 -9 -15z"/>
<path d="M2155 200 c-3 -5 1 -10 10 -10 9 0 13 5 10 10 -3 6 -8 10 -10 10 -2
0 -7 -4 -10 -10z"/>
<path d="M1670 173 c0 -16 35 -16 73 0 27 12 26 12 -22 13 -36 0 -51 -3 -51
-13z"/>
<path d="M464 169 c-3 -5 9 -9 25 -9 17 0 31 2 31 4 0 8 -51 13 -56 5z"/>
<path d="M1323 163 c9 -2 23 -2 30 0 6 3 -1 5 -18 5 -16 0 -22 -2 -12 -5z"/>
<path d="M1960 161 c14 -8 110 -16 135 -11 18 4 -69 19 -110 19 -28 0 -35 -2
-25 -8z"/>
<path d="M900 140 c0 -4 11 -10 25 -12 14 -3 25 -2 25 2 0 4 -11 10 -25 12
-14 3 -25 2 -25 -2z"/>
<path d="M1300 138 c0 -9 12 -11 60 -8 58 3 53 15 -6 15 -29 0 -54 -3 -54 -7z"/>
<path d="M2118 143 c7 -3 16 -2 19 1 4 3 -2 6 -13 5 -11 0 -14 -3 -6 -6z"/>
<path d="M1718 133 c12 -2 32 -2 45 0 12 2 2 4 -23 4 -25 0 -35 -2 -22 -4z"/>
<path d="M1808 133 c6 -2 18 -2 25 0 6 3 1 5 -13 5 -14 0 -19 -2 -12 -5z"/>
<path d="M395 110 c-38 -4 -81 -12 -95 -18 -21 -10 -14 -11 40 -6 108 10 132
13 137 17 10 10 -15 12 -82 7z"/>
<path d="M790 99 c0 -5 4 -9 9 -9 5 0 16 -3 25 -6 9 -3 16 -2 16 4 0 5 -11 12
-25 14 -14 3 -25 1 -25 -3z"/>
<path d="M1842 97 c-29 -5 -50 -13 -47 -17 3 -5 12 -7 19 -4 8 3 30 1 48 -4
25 -7 41 -6 59 4 13 7 34 13 47 14 13 0 20 4 17 10 -7 11 -65 10 -143 -3z"/>
<path d="M2000 101 c0 -5 9 -7 20 -4 11 3 20 7 20 9 0 2 -9 4 -20 4 -11 0 -20
-4 -20 -9z"/>
<path d="M2060 100 c0 -5 9 -10 21 -10 11 0 29 -5 40 -10 12 -7 25 -7 35 -2
16 9 12 11 -73 28 -13 2 -23 0 -23 -6z"/>
<path d="M526 91 c-17 -7 -16 -8 7 -24 15 -9 41 -16 59 -16 18 1 25 3 15 6 -9
2 -14 9 -11 15 14 22 -32 34 -70 19z"/>
<path d="M850 90 c0 -5 5 -10 10 -10 6 0 10 5 10 10 0 6 -4 10 -10 10 -5 0
-10 -4 -10 -10z"/>
<path d="M1168 82 c-14 -3 -16 -7 -8 -23 8 -13 7 -19 0 -19 -6 0 -8 -5 -4 -11
5 -8 9 -7 15 4 5 8 17 14 26 13 10 -2 12 -1 6 1 -16 5 -16 16 -3 29 11 11 0
13 -32 6z"/>
<path d="M1465 80 c3 -5 26 -10 51 -10 24 0 44 5 44 10 0 6 -23 10 -51 10 -31
0 -48 -4 -44 -10z"/>
<path d="M397 48 c-23 -24 -6 -42 41 -45 33 -2 44 13 17 23 -9 4 -14 13 -13
22 4 22 -24 22 -45 0z"/>
<path d="M1080 51 c0 -7 -9 -9 -26 -5 -19 5 -25 4 -20 -5 4 -6 16 -11 26 -11
20 0 36 17 26 27 -3 4 -6 1 -6 -6z"/>
<path d="M1305 47 c-11 -7 -22 -13 -24 -14 -2 -1 4 -9 12 -18 16 -15 56 -21
58 -7 10 54 -3 65 -46 39z"/>
<path d="M1797 33 c-4 -3 -7 -12 -7 -20 0 -10 24 -13 107 -13 118 0 131 6 34
14 -36 3 -69 10 -75 16 -11 11 -49 13 -59 3z"/>
<path d="M2045 30 c3 -5 25 -10 47 -10 51 0 47 5 -10 14 -29 4 -41 3 -37 -4z"/>
<path d="M184 15 c-18 -13 -16 -14 27 -15 33 0 49 5 53 15 7 20 -53 21 -80 0z"/>
<path d="M1488 23 c-10 -2 -18 -9 -18 -15 0 -8 33 -8 88 1 2 1 0 5 -3 11 -6
10 -36 11 -67 3z"/>
<path d="M710 10 c0 -5 14 -10 32 -10 36 0 35 4 -4 14 -17 4 -28 2 -28 -4z"/>
</g>
</svg>
